<?xml version="1.0" encoding="UTF-8"?>
<svg version="1.1" xmlns="http://www.w3.org/2000/svg" width="321" height="321">
<path d="M0 0 C2.49021789 2.19657811 4.90121138 4.45510936 7.30078125 6.75 C8.0484375 7.42289063 8.79609375 8.09578125 9.56640625 8.7890625 C23.25422125 21.56754713 31.59584426 38.83504762 36.30078125 56.75 C36.52765625 57.6059375 36.75453125 58.461875 36.98828125 59.34375 C38.33040306 65.38329816 38.59117146 71.45923183 38.73828125 77.625 C38.77276367 78.44629395 38.80724609 79.26758789 38.84277344 80.11376953 C38.87223597 84.33471126 38.61274676 86.28234329 36.2109375 89.8828125 C33.30078125 91.75 33.30078125 91.75 29.8828125 91.73828125 C26.34404388 90.76193615 23.29158038 89.53066625 19.98828125 87.9375 C-1.79676897 78.24160201 -28.09081716 77.27089634 -50.69921875 84.75 C-51.84003906 85.12382812 -52.98085937 85.49765625 -54.15625 85.8828125 C-79.47286077 94.95234566 -99.34491511 112.22587921 -111.453125 136.2265625 C-117.15176827 148.88069268 -120.0934231 161.26370361 -120.84082031 175.04931641 C-120.8972168 175.86190918 -120.95361328 176.67450195 -121.01171875 177.51171875 C-121.04910156 178.23319092 -121.08648437 178.95466309 -121.125 179.69799805 C-121.9639841 182.6961534 -123.25691998 183.82763474 -125.69921875 185.75 C-128.99388123 186.25120544 -128.99388123 186.25120544 -132.95874023 186.25170898 C-133.68281067 186.25711197 -134.4068811 186.26251495 -135.15289307 186.26808167 C-137.54245088 186.28057183 -139.93080429 186.26407571 -142.3203125 186.24609375 C-143.98413659 186.24624875 -145.64796104 186.24773789 -147.31178284 186.25050354 C-150.79794284 186.25188771 -154.28369153 186.23932812 -157.76977539 186.21655273 C-162.23321274 186.18818989 -166.69596557 186.19089908 -171.15945339 186.20364285 C-174.59534017 186.21060665 -178.03106944 186.2028024 -181.46693611 186.19038582 C-183.11232969 186.18587657 -184.75774021 186.18552992 -186.4031353 186.18945122 C-188.70587529 186.19236982 -191.00768097 186.17582592 -193.31030273 186.15405273 C-194.6195018 186.14864975 -195.92870087 186.14324677 -197.27757263 186.13768005 C-202.07831335 185.59374554 -204.58724935 183.8619694 -207.94921875 180.5 C-210.13467643 177.06570936 -210.62905132 174.81971098 -210.69921875 170.75 C-208.59407442 163.03113747 -202.68762755 158.32611343 -197.07421875 152.9375 C-195.14064759 151.05992394 -193.21284316 149.17660188 -191.28515625 147.29296875 C-190.42970215 146.46821045 -189.57424805 145.64345215 -188.69287109 144.79370117 C-186.31879879 142.36002994 -185.76775447 141.39738468 -185.41015625 138.01953125 C-185.76920525 133.95839598 -187.13401887 131.86225075 -189.32421875 128.4375 C-202.02684161 107.44527929 -205.9168671 81.68094482 -200.69921875 57.75 C-192.85834905 27.75315164 -174.2487302 4.02474666 -147.5859375 -11.73828125 C-101.84773651 -37.6040225 -40.68779982 -33.9163136 0 0 Z " fill="#AAAAAA" transform="translate(230.69921875,57.25)"/>
<path d="M0 0 C14.30172787 12.22931107 23.82168454 30.17410825 25.45263672 49.03027344 C25.96994427 58.19453326 25.55355046 66.78396561 22.90625 75.6328125 C21.19421829 83.60191249 22.08382598 88.42961511 26.41796875 95.39257812 C26.98128906 96.25302734 27.54460937 97.11347656 28.125 98 C29.22734822 99.74559782 30.32894006 101.49167357 31.4296875 103.23828125 C31.92194824 103.99794189 32.41420898 104.75760254 32.92138672 105.5402832 C35.85540681 110.28205216 37.09394657 114.03305798 36.25 119.6875 C34.90889058 123.5279497 33.10909909 126.13981404 29.62266541 128.36245728 C25.63531438 129.92899585 22.12852697 130.10941567 17.91235352 130.07568359 C17.09676468 130.08094055 16.28117584 130.08619751 15.44087219 130.09161377 C12.7533532 130.10477829 10.06643098 130.09608093 7.37890625 130.0859375 C5.49527372 130.08796101 3.61164195 130.09087475 1.72801208 130.09463501 C-2.22200979 130.09905506 -6.17182801 130.09264408 -10.12182617 130.07861328 C-15.14467826 130.06162745 -20.1670456 130.07129688 -25.18987942 130.08933067 C-29.08422876 130.10026797 -32.97846686 130.09667525 -36.8728199 130.0889473 C-38.72207765 130.0869671 -40.57134602 130.08932648 -42.42059135 130.09638596 C-64.11696001 130.16097356 -82.40940544 126.74221757 -99.75 112.6875 C-100.80960938 111.87345703 -100.80960938 111.87345703 -101.890625 111.04296875 C-116.42418923 99.28451422 -124.97880636 80.99692466 -126.97753906 62.59228516 C-128.37840521 43.61010827 -122.96500001 24.55174277 -110.68359375 9.8359375 C-81.05776068 -23.0816548 -35.14694773 -27.37406506 0 0 Z " fill="#AAAAAA" transform="translate(261.75,180.3125)"/>
</svg>
