<?xml version="1.0" encoding="UTF-8"?>
<svg version="1.1" xmlns="http://www.w3.org/2000/svg" width="512" height="512">
<path d="M0 0 C4.96286442 2.91497493 8.81850844 6.53506748 12.85821533 10.60424805 C13.52346623 11.26637897 14.18871713 11.92850988 14.87412715 12.61070538 C17.09436001 14.82298282 19.30740147 17.04231385 21.52050781 19.26171875 C23.11377244 20.85227248 24.70746205 22.44240061 26.30154419 24.03213501 C30.62405799 28.34553578 34.94022713 32.66523339 39.25501347 36.98636246 C43.77010405 41.50651685 48.29007258 46.02178922 52.80926514 50.5378418 C60.88116674 58.60587265 68.94801322 66.67893214 77.012889 74.75398433 C84.3254358 82.07547228 91.643219 89.39169212 98.96484375 96.70410156 C107.47128937 105.19984559 115.97436557 113.6989351 124.47250628 122.20298862 C128.96966611 126.70326934 133.46817311 131.20218103 137.97019196 135.69760132 C142.2001578 139.92179992 146.42522031 144.15084178 150.64651108 148.38370895 C152.19843515 149.93828259 153.75207307 151.49114741 155.30752182 153.04219437 C157.42623779 155.15546551 159.53872897 157.27476754 161.64971924 159.39575195 C162.27013446 160.01170573 162.89054968 160.62765951 163.52976537 161.26227856 C164.37665335 162.11698978 164.37665335 162.11698978 165.24065018 162.9889679 C165.72875585 163.47739827 166.21686152 163.96582865 166.71975827 164.46905994 C169.7439212 168.08541775 170.31578622 171.22079685 170.375 175.875 C170.40335938 176.88304687 170.43171875 177.89109375 170.4609375 178.9296875 C169.45416071 185.63584474 164.02361787 190.265464 159.40248108 194.85821533 C158.74105573 195.52346623 158.07963037 196.18871713 157.39816183 196.87412715 C155.1882214 199.09435813 152.97122836 201.30740594 150.75415039 203.52050781 C149.16522653 205.1137802 147.57672074 206.70746961 145.98860168 208.30154419 C141.67937029 212.62415856 137.36376264 216.94035288 133.04656911 221.25501347 C129.44362816 224.85688468 125.84366813 228.46172795 122.24365896 232.06652904 C113.26813706 241.05377672 104.28634091 250.03471845 95.30174219 259.012889 C87.49996123 266.80949658 79.70643438 274.61429589 71.91674585 282.42298356 C63.91389838 290.44520006 55.90537331 298.46170082 47.89109987 306.47250628 C43.39340502 310.96838586 38.89797809 315.46647618 34.40812874 319.97019196 C30.18853799 324.20232669 25.96179922 328.42718809 21.72939873 332.64651108 C20.17597924 334.19755813 18.62512413 335.75117831 17.07701111 337.30752182 C14.96635927 339.42858545 12.84671354 341.54023031 10.72450256 343.64971924 C10.11146163 344.27013446 9.49842069 344.89054968 8.86680275 345.52976537 C4.53306586 349.80888291 0.84716397 352.27889217 -5.4375 352.3125 C-10.31540094 352.1749804 -13.88576735 351.09704377 -17.44140625 347.5703125 C-20.79388504 343.7307214 -22.14567637 340.72111502 -22.25 335.6875 C-22.27578125 334.94886719 -22.3015625 334.21023438 -22.328125 333.44921875 C-21.47299542 327.06628725 -17.39716075 322.96896051 -13.02058411 318.65982056 C-12.41365508 318.05032826 -11.80672606 317.44083596 -11.18140525 316.8128742 C-9.1524876 314.77902796 -7.11305827 312.75606769 -5.07348633 310.73291016 C-3.61428984 309.27456014 -2.15575414 307.81554871 -0.6978302 306.35592651 C3.25798645 302.39924926 7.22298343 298.45188883 11.18968749 294.5061307 C15.33505183 290.37952219 19.4719201 286.24441447 23.60969543 282.11019897 C31.44469285 274.2845252 39.28730614 266.46653015 47.13268119 258.65126169 C56.06473522 249.75274162 64.98827055 240.84569984 73.91109884 231.93793035 C92.26459964 213.61578581 110.62877784 195.30437445 129 177 C127.36374273 172.83156625 124.31591155 170.04909514 121.19226074 166.96520996 C120.59168083 166.36433233 119.99110091 165.76345469 119.37232161 165.14436865 C117.35643944 163.12987667 115.33349826 161.12262548 113.31054688 159.11523438 C111.86479609 157.67332141 110.41949962 156.23095279 108.97462463 154.78816223 C105.8612198 151.68108308 102.74473355 148.57713951 99.62586975 145.47554016 C94.69658008 140.57326044 89.7748966 135.66339265 84.85437012 130.75231934 C74.40880223 120.32896665 63.95482819 109.91406315 53.5 99.5 C42.21403284 88.25803862 30.92949258 77.01466806 19.65468073 65.76151705 C14.76072254 60.87753886 9.8619245 55.99848293 4.95940399 51.12310028 C1.91335852 48.09194918 -1.12855964 45.0566822 -4.16935921 42.02026939 C-5.58258102 40.61079905 -6.99753432 39.2030624 -8.41431999 37.79717445 C-10.34492752 35.88095353 -12.26931201 33.95869201 -14.19226074 32.03479004 C-14.75704022 31.47720048 -15.3218197 30.91961093 -15.9037137 30.34512472 C-20.57292298 25.65098527 -22.2908887 22.73614842 -22.375 16.125 C-22.27363418 10.91733093 -21.69948398 7.89419367 -18 4 C-12.87322962 -0.87043186 -6.74482111 -1.1943954 0 0 Z " fill="#DEE0E2" transform="translate(182,80)"/>
</svg>
