<?xml version="1.0" encoding="UTF-8"?>
<svg version="1.1" xmlns="http://www.w3.org/2000/svg" width="512" height="512">
<path d="M0 0 C1.10794922 -0.03867188 1.10794922 -0.03867188 2.23828125 -0.078125 C8.62121275 0.77700458 12.71853949 4.85283925 17.02767944 9.22941589 C17.63717174 9.83634492 18.24666404 10.44327394 18.8746258 11.06859475 C20.90847204 13.0975124 22.93143231 15.13694173 24.95458984 17.17651367 C26.41293986 18.63571016 27.87195129 20.09424586 29.33157349 21.5521698 C33.28825074 25.50798645 37.23561117 29.47298343 41.1813693 33.43968749 C45.30797781 37.58505183 49.44308553 41.7219201 53.57730103 45.85969543 C61.4029748 53.69469285 69.22096985 61.53730614 77.03623831 69.38268119 C85.93475838 78.31473522 94.84180016 87.23827055 103.74956965 96.16109884 C122.07171419 114.51459964 140.38312555 132.87877784 158.6875 151.25 C162.85593375 149.61374273 165.63840486 146.56591155 168.72229004 143.44226074 C169.32316767 142.84168083 169.92404531 142.24110091 170.54313135 141.62232161 C172.55762333 139.60643944 174.56487452 137.58349826 176.57226562 135.56054688 C178.01417859 134.11479609 179.45654721 132.66949962 180.89933777 131.22462463 C184.00641692 128.1112198 187.11036049 124.99473355 190.21195984 121.87586975 C195.11423956 116.94658008 200.02410735 112.0248966 204.93518066 107.10437012 C215.35853335 96.65880223 225.77343685 86.20482819 236.1875 75.75 C247.42946138 64.46403284 258.67283194 53.17949258 269.92598295 41.90468073 C274.80996114 37.01072254 279.68901707 32.1119245 284.56439972 27.20940399 C287.59555082 24.16335852 290.6308178 21.12144036 293.66723061 18.08064079 C295.07670095 16.66741898 296.4844376 15.25246568 297.89032555 13.83568001 C299.80654647 11.90507248 301.72880799 9.98068799 303.65270996 8.05773926 C304.21029952 7.49295978 304.76788907 6.9281803 305.34237528 6.3462863 C310.03651473 1.67707702 312.95135158 -0.0408887 319.5625 -0.125 C324.77016907 -0.02363418 327.79330633 0.55051602 331.6875 4.25 C336.10165841 8.89648254 336.15508261 13.13793066 336.21875 19.25 C335.03889834 25.91269174 329.70897082 30.51600122 325.08325195 35.10821533 C324.42112103 35.77346623 323.75899012 36.43871713 323.07679462 37.12412715 C320.86451718 39.34436001 318.64518615 41.55740147 316.42578125 43.77050781 C314.83522752 45.36377244 313.24509939 46.95746205 311.65536499 48.55154419 C307.34196422 52.87405799 303.02226661 57.19022713 298.70113754 61.50501347 C294.18098315 66.02010405 289.66571078 70.54007258 285.1496582 75.05926514 C277.08162735 83.13116674 269.00856786 91.19801322 260.93351567 99.262889 C253.61202772 106.5754358 246.29580788 113.893219 238.98339844 121.21484375 C230.48765441 129.72128937 221.9885649 138.22436557 213.48451138 146.72250628 C208.98423066 151.21966611 204.48531897 155.71817311 199.98989868 160.22019196 C195.76570008 164.4501578 191.53665822 168.67522031 187.30379105 172.89651108 C185.74921741 174.44843515 184.19635259 176.00207307 182.64530563 177.55752182 C180.53203449 179.67623779 178.41273246 181.78872897 176.29174805 183.89971924 C175.67579427 184.52013446 175.05984049 185.14054968 174.42522144 185.77976537 C173.57051022 186.62665335 173.57051022 186.62665335 172.6985321 187.49065018 C172.21010173 187.97875585 171.72167135 188.46686152 171.21844006 188.96975827 C167.60208225 191.9939212 164.46670315 192.56578622 159.8125 192.625 C158.80445313 192.65335938 157.79640625 192.68171875 156.7578125 192.7109375 C150.05165526 191.70416071 145.422036 186.27361787 140.82928467 181.65248108 C140.16403377 180.99105573 139.49878287 180.32963037 138.81337285 179.64816183 C136.59314187 177.4382214 134.38009406 175.22122836 132.16699219 173.00415039 C130.5737198 171.41522653 128.98003039 169.82672074 127.38595581 168.23860168 C123.06334144 163.92937029 118.74714712 159.61376264 114.43248653 155.29656911 C110.83061532 151.69362816 107.22577205 148.09366813 103.62097096 144.49365896 C94.63372328 135.51813706 85.65278155 126.53634091 76.674611 117.55174219 C68.87800342 109.74996123 61.07320411 101.95643438 53.26451644 94.16674585 C45.24229994 86.16389838 37.22579918 78.15537331 29.21499372 70.14109987 C24.71911414 65.64340502 20.22102382 61.14797809 15.71730804 56.65812874 C11.48517331 52.43853799 7.26031191 48.21179922 3.04098892 43.97939873 C1.48994187 42.42597924 -0.06367831 40.87512413 -1.62002182 39.32701111 C-3.74108545 37.21635927 -5.85273031 35.09671354 -7.96221924 32.97450256 C-8.58263446 32.36146163 -9.20304968 31.74842069 -9.84226537 31.11680275 C-14.12138291 26.78306586 -16.59139217 23.09716397 -16.625 16.8125 C-16.4874804 11.93459906 -15.40954377 8.36423265 -11.8828125 4.80859375 C-8.0432214 1.45611496 -5.03361502 0.10432363 0 0 Z " fill="#9B9CA2" transform="translate(96.3125,159.75)"/>
</svg>
