<?xml version="1.0" encoding="UTF-8"?>
<svg version="1.1" xmlns="http://www.w3.org/2000/svg" width="320" height="321">
<path d="M0 0 C24.30213261 22.51920104 37.30313181 51.98312715 39.09765625 84.9453125 C39.98304861 112.19642462 31.25026208 141.41861955 13.8125 162.5625 C15.44294975 166.72057592 18.47979101 169.47570971 21.60742188 172.53686523 C22.49549278 173.4181459 22.49549278 173.4181459 23.40150452 174.31723022 C24.68541987 175.59020114 25.97160232 176.86088862 27.25978088 178.12954521 C29.29867831 180.1382641 31.33081285 182.15360145 33.36120605 184.1709137 C39.13452725 189.90449317 44.92044558 195.62530099 50.70947266 201.34301758 C54.25179012 204.84261796 57.7867671 208.34950012 61.31752014 211.86076546 C62.66383325 213.19651289 64.01305317 214.52933714 65.36521912 215.85915947 C67.25618154 217.71892209 69.13775599 219.58772749 71.01757812 221.45874023 C71.57764053 222.00487473 72.13770294 222.55100922 72.71473694 223.11369324 C76.26970243 226.67720574 78.61838166 229.70049878 78.96484375 234.80859375 C78.39422473 240.6289078 77.12203999 243.54679228 72.8125 247.5625 C69.10231255 249.93289754 65.48248329 249.9430669 61.23046875 249.26087952 C52.34931993 246.69574611 44.00213059 234.87792135 37.5625 228.41015625 C36.29619957 227.14198736 35.02967567 225.87404158 33.76293945 224.60630798 C30.45311579 221.29269289 27.1463081 217.97608428 23.84014893 214.65881348 C20.45646961 211.26484695 17.06990585 207.8737612 13.68359375 204.48242188 C7.05709178 197.8452422 0.43377682 191.20489205 -6.1875 184.5625 C-9.58523374 186.22136429 -12.69247898 188.14188469 -15.875 190.1875 C-44.71986876 208.14470283 -76.87612502 213.52112619 -110.1875 206.5625 C-140.77352978 199.00789769 -167.44382656 179.78199209 -184.375 153.25 C-200.61460544 125.79030352 -207.49037698 93.01645537 -199.72216797 61.59716797 C-190.89945994 28.02253384 -171.19512629 1.09839388 -141.24316406 -16.58544922 C-95.16870148 -42.89867074 -39.04383536 -34.07353117 0 0 Z M-148.9375 23.875 C-165.77953902 41.45734843 -175.37490968 65.13718187 -175.23828125 89.47412109 C-174.70841163 111.26500921 -167.42264849 131.89988409 -153.1875 148.5625 C-152.54425781 149.36171875 -151.90101563 150.1609375 -151.23828125 150.984375 C-138.04704415 166.68706759 -119.04577349 176.40775484 -99.1875 180.5625 C-98.27097656 180.75457031 -97.35445313 180.94664062 -96.41015625 181.14453125 C-71.94611275 184.31744356 -47.87980207 178.83506889 -27.53515625 164.72265625 C-24.99116122 162.75738995 -22.58069253 160.70877584 -20.1875 158.5625 C-19.29289063 157.76199219 -18.39828125 156.96148437 -17.4765625 156.13671875 C-0.93368707 140.49744576 10.21532279 118.58618334 11.05078125 95.578125 C11.60140449 67.19510177 3.7399842 43.9118925 -15.76220703 22.87890625 C-33.19733368 4.96129062 -57.14804687 -3.87138133 -81.84375 -4.46875 C-107.53552008 -4.55953364 -130.51362143 6.47289632 -148.9375 23.875 Z " fill="#AAAAAA" transform="translate(215.1875,45.4375)"/>
</svg>
