<?xml version="1.0" encoding="UTF-8"?>
<svg version="1.1" xmlns="http://www.w3.org/2000/svg" width="256" height="256">
<path d="M0 0 C18.49332463 16.16696626 30.2462623 36.22198667 36 60 C36.36931641 61.485 36.36931641 61.485 36.74609375 63 C42.20539408 89.50584436 35.66642756 118.64428833 21.17431641 141.25146484 C15.44641138 149.78020825 9.16279416 157.69313288 1 164 C0.32839844 164.556875 -0.34320313 165.11375 -1.03515625 165.6875 C-22.71424634 183.31405601 -46.35480093 190.05406884 -73.78613281 190.20874023 C-74.90790924 190.21852402 -76.02968567 190.2283078 -77.18545532 190.23838806 C-80.85800019 190.26804666 -84.53050991 190.28963128 -88.203125 190.30859375 C-89.46407738 190.31516558 -90.72502975 190.3217374 -92.02419281 190.32850838 C-97.32089491 190.35431061 -102.61758325 190.37779773 -107.91432571 190.39300442 C-115.46735527 190.41496064 -123.01967937 190.45713645 -130.57242703 190.52644199 C-136.55200095 190.57943317 -142.53124953 190.59948915 -148.51107025 190.60820198 C-151.04522978 190.61676088 -153.57937649 190.63558939 -156.11338043 190.6649456 C-159.65330046 190.70378612 -163.19136341 190.70490482 -166.73144531 190.69702148 C-167.77368256 190.71702209 -168.8159198 190.73702271 -169.88973999 190.75762939 C-175.93303963 190.69722464 -179.33575651 189.84265219 -183.75504684 185.6236887 C-185.94564846 182.76666949 -186.12405422 180.53554528 -186 177 C-184.01570787 171.17803177 -181.15777023 167.58647461 -176.875 163.25 C-175.71160052 162.02658258 -174.55015765 160.80130171 -173.390625 159.57421875 C-172.81892578 158.97270996 -172.24722656 158.37120117 -171.65820312 157.75146484 C-169.26583829 155.2245471 -166.92028789 152.67898384 -164.625 150.0625 C-163.89539063 149.24910156 -163.16578125 148.43570313 -162.4140625 147.59765625 C-160.41842444 143.93163606 -160.94826722 141.99743964 -162 138 C-163.09311448 135.40864288 -164.40134939 132.96606882 -165.75 130.5 C-178.61481326 105.83043871 -180.765582 77.72479572 -173 51 C-163.88518417 22.42805583 -144.10832085 -0.66482388 -117.57104492 -14.40380859 C-78.85533479 -33.43966659 -33.07122623 -27.08327621 0 0 Z " fill="#80848E" transform="translate(198,46)"/>
</svg>
